<svg width="23" height="24" viewBox="0 0 23 24" fill="none" xmlns="http://www.w3.org/2000/svg">
<path d="M10.8182 15.4581L10.3142 10.1841V6.11613H12.6542V10.1841L12.1502 15.4581H10.8182ZM12.6002 18.6981C12.3002 18.9981 11.9282 19.1481 11.4842 19.1481C11.0402 19.1481 10.6682 19.0041 10.3682 18.7161C10.0802 18.4161 9.93625 18.0501 9.93625 17.6181C9.93625 17.1861 10.0802 16.8201 10.3682 16.5201C10.6682 16.2201 11.0402 16.0701 11.4842 16.0701C11.9282 16.0701 12.3002 16.2201 12.6002 16.5201C12.9122 16.8201 13.0682 17.1861 13.0682 17.6181C13.0682 18.0381 12.9122 18.3981 12.6002 18.6981Z" fill="#E93C24"/>
<circle cx="11.5001" cy="12.4322" r="10.5001" stroke="#E93C24" stroke-width="2"/>
</svg>
