<svg width="363" height="64" viewBox="0 0 363 64" fill="none" xmlns="http://www.w3.org/2000/svg">
<path d="M7.8306 57.3331C3.24269 51.3162 0.94873 43.5318 0.94873 33.9799C0.94873 28.8279 1.66324 24.146 3.09226 19.9341C4.55889 15.7223 6.34517 12.3565 8.45109 9.83695H14.9945C13.3398 11.7925 11.6852 14.9701 10.0305 19.37C8.41349 23.7699 7.60496 28.6399 7.60496 33.9799C7.60496 39.2447 8.33828 43.9266 9.8049 48.0257C11.3091 52.1247 12.8322 55.2272 14.374 57.3331H7.8306Z" fill="white"/>
<path d="M30.9859 0.134644C36.8901 0.134644 41.7224 1.09359 45.483 3.01149C49.2812 4.89178 51.9324 7.65581 53.4366 11.3036H47.7957C46.3667 9.64892 44.2608 8.31391 41.478 7.29855C38.6951 6.24559 35.1978 5.71911 30.9859 5.71911C27.1878 5.71911 23.8972 6.18918 21.1144 7.12933C18.3316 8.03187 16.1128 9.42328 14.4582 11.3036H8.81731C10.6976 7.39257 13.5744 4.55333 17.4478 2.78586C21.3212 1.01838 25.8339 0.134644 30.9859 0.134644Z" fill="white"/>
<path d="M42.5497 24.616C39.7669 24.616 37.3977 23.6571 35.4422 21.7392C33.4867 19.7837 32.509 17.4145 32.509 14.6317C32.509 11.8113 33.4679 9.46089 35.3858 7.5806C37.3413 5.6627 39.7293 4.70375 42.5497 4.70375C45.3702 4.70375 47.7393 5.6627 49.6572 7.5806C51.6127 9.46089 52.5905 11.8113 52.5905 14.6317C52.5905 17.4145 51.6127 19.7837 49.6572 21.7392C47.7393 23.6571 45.3702 24.616 42.5497 24.616ZM39.7857 17.5649C40.5378 18.3547 41.4592 18.7495 42.5497 18.7495C43.6403 18.7495 44.5428 18.3547 45.2574 17.5649C46.0095 16.7752 46.3855 15.7975 46.3855 14.6317C46.3855 13.4659 46.0095 12.507 45.2574 11.7548C44.5428 11.0027 43.6403 10.6267 42.5497 10.6267C41.4592 10.6267 40.5378 11.0027 39.7857 11.7548C39.0712 12.507 38.7139 13.4659 38.7139 14.6317C38.7139 15.7975 39.0712 16.7752 39.7857 17.5649Z" fill="white"/>
<path d="M68.0108 63.5381C62.1067 63.5381 57.2743 62.5791 53.5137 60.6612C49.7156 58.7809 47.0643 56.0169 45.5601 52.3691H51.201C52.63 53.9862 54.7359 55.3212 57.5188 56.3742C60.3016 57.4271 63.7989 57.9536 68.0108 57.9536C71.809 57.9536 75.0995 57.4835 77.8823 56.5434C80.7028 55.6032 82.9215 54.2118 84.5386 52.3691H90.1794C88.2991 56.2801 85.4223 59.1194 81.5489 60.8869C77.6755 62.6543 73.1628 63.5381 68.0108 63.5381Z" fill="white"/>
<path d="M79.6874 50.5641C77.3558 50.5641 75.2499 50.2444 73.3696 49.6051C71.4893 48.9658 69.7031 48.1385 68.0108 47.1231L71.0005 41.0874C71.5645 41.3882 72.2791 41.7643 73.144 42.2156C74.0465 42.6292 75.0431 43.0053 76.1337 43.3437C77.2242 43.6446 78.3336 43.795 79.4618 43.795C81.0788 43.795 82.4138 43.3061 83.4668 42.3284C84.5198 41.313 85.0462 40.0156 85.0462 38.4362C85.0462 37.3456 84.7642 36.1986 84.2001 34.9952C83.6736 33.7543 82.6583 32.5321 81.154 31.3287C79.6874 30.1253 77.5627 29.0535 74.7798 28.1134V7.12933H83.1847V24.5596C86.6069 26.1391 89.1829 28.057 90.9127 30.3133C92.6426 32.5321 93.5075 35.2585 93.5075 38.4926C93.5075 40.7489 92.9435 42.7985 91.8153 44.6411C90.7247 46.4462 89.1453 47.894 87.0769 48.9846C85.0086 50.0376 82.5454 50.5641 79.6874 50.5641Z" fill="white"/>
<path d="M108.548 0.134644C114.452 0.134644 119.284 1.09359 123.045 3.01149C126.843 4.89178 129.494 7.65581 130.999 11.3036H125.358C123.929 9.64892 121.823 8.31391 119.04 7.29855C116.257 6.24559 112.76 5.71911 108.548 5.71911C104.75 5.71911 101.459 6.18918 98.6764 7.12933C95.8936 8.03187 93.6749 9.42328 92.0202 11.3036H86.3793C88.2596 7.39257 91.1365 4.55333 95.0099 2.78586C98.8833 1.01838 103.396 0.134644 108.548 0.134644Z" fill="white"/>
<path d="M120.112 24.616C117.329 24.616 114.96 23.6571 113.004 21.7392C111.049 19.7837 110.071 17.4145 110.071 14.6317C110.071 11.8113 111.03 9.46089 112.948 7.5806C114.903 5.6627 117.291 4.70375 120.112 4.70375C122.932 4.70375 125.301 5.6627 127.219 7.5806C129.175 9.46089 130.152 11.8113 130.152 14.6317C130.152 17.4145 129.175 19.7837 127.219 21.7392C125.301 23.6571 122.932 24.616 120.112 24.616ZM117.348 17.5649C118.1 18.3547 119.021 18.7495 120.112 18.7495C121.202 18.7495 122.105 18.3547 122.819 17.5649C123.571 16.7752 123.948 15.7975 123.948 14.6317C123.948 13.4659 123.571 12.507 122.819 11.7548C122.105 11.0027 121.202 10.6267 120.112 10.6267C119.021 10.6267 118.1 11.0027 117.348 11.7548C116.633 12.507 116.276 13.4659 116.276 14.6317C116.276 15.7975 116.633 16.7752 117.348 17.5649Z" fill="white"/>
<path d="M134.454 57.3331C135.356 56.0169 136.24 54.4751 137.105 52.7076C138.007 50.9401 138.91 48.3077 139.812 44.8104C140.753 41.2754 141.223 37.6653 141.223 33.9799C141.223 28.6399 140.395 23.7699 138.741 19.37C137.124 14.9701 135.488 11.7925 133.833 9.83695H140.377C142.483 12.3565 144.25 15.7223 145.679 19.9341C147.146 24.146 147.879 28.8279 147.879 33.9799C147.879 43.5318 145.585 51.3162 140.997 57.3331H134.454Z" fill="white"/>
<path d="M355.17 57.3331C359.758 51.3162 362.052 43.5318 362.052 33.9799C362.052 28.8279 361.337 24.146 359.908 19.9341C358.441 15.7223 356.655 12.3565 354.549 9.83695H348.006C349.66 11.7925 351.315 14.9701 352.97 19.37C354.587 23.7699 355.395 28.6399 355.395 33.9799C355.395 39.2447 354.662 43.9266 353.195 48.0257C351.691 52.1247 350.168 55.2272 348.626 57.3331H355.17Z" fill="white"/>
<path d="M332.014 0.134644C326.11 0.134644 321.278 1.09359 317.517 3.01149C313.719 4.89178 311.068 7.65581 309.564 11.3036H315.204C316.634 9.64892 318.739 8.31391 321.522 7.29855C324.305 6.24559 327.802 5.71911 332.014 5.71911C335.812 5.71911 339.103 6.18918 341.886 7.12933C344.669 8.03187 346.887 9.42328 348.542 11.3036H354.183C352.303 7.39257 349.426 4.55333 345.552 2.78586C341.679 1.01838 337.166 0.134644 332.014 0.134644Z" fill="white"/>
<path d="M320.451 24.616C323.233 24.616 325.603 23.6571 327.558 21.7392C329.514 19.7837 330.491 17.4145 330.491 14.6317C330.491 11.8113 329.532 9.46089 327.614 7.5806C325.659 5.6627 323.271 4.70375 320.451 4.70375C317.63 4.70375 315.261 5.6627 313.343 7.5806C311.388 9.46089 310.41 11.8113 310.41 14.6317C310.41 17.4145 311.388 19.7837 313.343 21.7392C315.261 23.6571 317.63 24.616 320.451 24.616ZM323.215 17.5649C322.462 18.3547 321.541 18.7495 320.451 18.7495C319.36 18.7495 318.457 18.3547 317.743 17.5649C316.991 16.7752 316.615 15.7975 316.615 14.6317C316.615 13.4659 316.991 12.507 317.743 11.7548C318.457 11.0027 319.36 10.6267 320.451 10.6267C321.541 10.6267 322.462 11.0027 323.215 11.7548C323.929 12.507 324.286 13.4659 324.286 14.6317C324.286 15.7975 323.929 16.7752 323.215 17.5649Z" fill="white"/>
<path d="M294.989 63.5381C300.894 63.5381 305.726 62.5791 309.486 60.6612C313.285 58.7809 315.936 56.0169 317.44 52.3691H311.799C310.37 53.9862 308.264 55.3212 305.481 56.3742C302.699 57.4271 299.201 57.9536 294.989 57.9536C291.191 57.9536 287.901 57.4835 285.118 56.5434C282.297 55.6032 280.079 54.2118 278.462 52.3691H272.821C274.701 56.2801 277.578 59.1194 281.451 60.8869C285.325 62.6543 289.837 63.5381 294.989 63.5381Z" fill="white"/>
<path d="M283.313 50.5641C285.644 50.5641 287.75 50.2444 289.631 49.6051C291.511 48.9658 293.297 48.1385 294.989 47.1231L292 41.0874C291.436 41.3882 290.721 41.7643 289.856 42.2156C288.954 42.6292 287.957 43.0053 286.867 43.3437C285.776 43.6446 284.667 43.795 283.538 43.795C281.921 43.795 280.586 43.3061 279.533 42.3284C278.48 41.313 277.954 40.0156 277.954 38.4362C277.954 37.3456 278.236 36.1986 278.8 34.9952C279.327 33.7543 280.342 32.5321 281.846 31.3287C283.313 30.1253 285.438 29.0535 288.22 28.1134V7.12933H279.815V24.5596C276.393 26.1391 273.817 28.057 272.087 30.3133C270.358 32.5321 269.493 35.2585 269.493 38.4926C269.493 40.7489 270.057 42.7985 271.185 44.6411C272.276 46.4462 273.855 47.894 275.923 48.9846C277.992 50.0376 280.455 50.5641 283.313 50.5641Z" fill="white"/>
<path d="M254.452 0.134644C248.548 0.134644 243.716 1.09359 239.955 3.01149C236.157 4.89178 233.506 7.65581 232.002 11.3036H237.642C239.072 9.64892 241.177 8.31391 243.96 7.29855C246.743 6.24559 250.24 5.71911 254.452 5.71911C258.25 5.71911 261.541 6.18918 264.324 7.12933C267.107 8.03187 269.325 9.42328 270.98 11.3036H276.621C274.741 7.39257 271.864 4.55333 267.99 2.78586C264.117 1.01838 259.604 0.134644 254.452 0.134644Z" fill="white"/>
<path d="M242.888 24.616C245.671 24.616 248.04 23.6571 249.996 21.7392C251.951 19.7837 252.929 17.4145 252.929 14.6317C252.929 11.8113 251.97 9.46089 250.052 7.5806C248.097 5.6627 245.709 4.70375 242.888 4.70375C240.068 4.70375 237.699 5.6627 235.781 7.5806C233.825 9.46089 232.848 11.8113 232.848 14.6317C232.848 17.4145 233.825 19.7837 235.781 21.7392C237.699 23.6571 240.068 24.616 242.888 24.616ZM245.653 17.5649C244.9 18.3547 243.979 18.7495 242.888 18.7495C241.798 18.7495 240.895 18.3547 240.181 17.5649C239.429 16.7752 239.053 15.7975 239.053 14.6317C239.053 13.4659 239.429 12.507 240.181 11.7548C240.895 11.0027 241.798 10.6267 242.888 10.6267C243.979 10.6267 244.9 11.0027 245.653 11.7548C246.367 12.507 246.724 13.4659 246.724 14.6317C246.724 15.7975 246.367 16.7752 245.653 17.5649Z" fill="white"/>
<path d="M228.547 57.3331C227.644 56.0169 226.76 54.4751 225.895 52.7076C224.993 50.9401 224.09 48.3077 223.188 44.8104C222.248 41.2754 221.778 37.6653 221.778 33.9799C221.778 28.6399 222.605 23.7699 224.26 19.37C225.877 14.9701 227.512 11.7925 229.167 9.83695H222.624C220.518 12.3565 218.75 15.7223 217.321 19.9341C215.855 24.146 215.121 28.8279 215.121 33.9799C215.121 43.5318 217.415 51.3162 222.003 57.3331H228.547Z" fill="white"/>
</svg>
