<svg width="475" height="372" viewBox="0 0 475 372" fill="none" xmlns="http://www.w3.org/2000/svg">
<path d="M133.917 101.495C137.299 106.702 139.975 114.364 142.032 123.582C144.077 132.753 145.465 143.245 146.385 153.961C148.226 175.39 148.179 197.492 147.874 211.256C147.765 216.17 142.93 219.311 138.396 217.414C125.696 212.098 105.483 203.156 86.6522 192.764C77.236 187.567 68.2133 182.034 60.6666 176.438C53.0801 170.811 47.1668 165.252 43.7848 160.046C25.3533 131.673 31.1399 95.876 55.7839 79.8671C80.4279 63.8583 115.486 73.1221 133.917 101.495Z" stroke="white" stroke-width="5.5195"/>
<path fill-rule="evenodd" clip-rule="evenodd" d="M457.056 190.283L186.197 162.058L126.77 204.823L125.191 219.979L123.779 233.528L173.138 287.38L443.997 315.605L457.056 190.283ZM149.729 232.551C155.497 233.152 160.66 228.964 161.261 223.196C161.862 217.428 157.674 212.265 151.906 211.664C146.138 211.063 140.975 215.252 140.374 221.02C139.773 226.787 143.962 231.95 149.729 232.551Z" fill="#E93C24"/>
<path d="M218.531 255.537L219.096 250.123C216.431 249.237 214.23 247.791 212.493 245.785C210.756 243.78 209.568 241.365 208.93 238.542L215.865 236.771C216.502 238.824 217.503 240.51 218.865 241.827C220.228 243.145 221.852 243.902 223.737 244.099C225.703 244.304 227.319 243.965 228.587 243.084C229.859 242.162 230.591 240.779 230.783 238.934C230.883 237.971 230.77 237.108 230.445 236.344C230.123 235.54 229.512 234.787 228.612 234.085C227.752 233.388 226.958 232.839 226.23 232.438C225.541 232.042 224.504 231.488 223.119 230.776C221.693 230.06 220.616 229.502 219.887 229.102C219.163 228.661 218.197 228.013 216.988 227.157C215.824 226.266 214.961 225.405 214.399 224.577C213.877 223.752 213.42 222.691 213.028 221.393C212.676 220.099 212.58 218.69 212.738 217.166C213.018 214.479 214.103 212.24 215.993 210.451C217.926 208.625 220.449 207.57 223.559 207.286L224.061 202.473L231.1 203.206L230.592 208.08C232.9 208.888 234.717 210.131 236.042 211.81C237.412 213.453 238.302 215.411 238.714 217.684L231.991 219.172C231.129 216.163 229.073 214.49 225.824 214.151C224.18 213.98 222.856 214.227 221.855 214.893C220.853 215.559 220.281 216.574 220.139 217.937C220.076 218.539 220.158 219.115 220.384 219.666C220.611 220.217 220.885 220.691 221.209 221.09C221.576 221.452 222.12 221.874 222.841 222.355C223.601 222.839 224.232 223.209 224.732 223.464C225.233 223.719 226.003 224.103 227.045 224.617C228.314 225.276 229.255 225.78 229.867 226.128C230.48 226.475 231.356 227.013 232.497 227.74C233.637 228.467 234.495 229.184 235.07 229.893C235.649 230.562 236.251 231.395 236.877 232.392C237.507 233.35 237.92 234.447 238.116 235.684C238.315 236.881 238.34 238.201 238.189 239.645C237.834 243.054 236.541 245.737 234.31 247.694C232.079 249.651 229.349 250.745 226.122 250.976L225.571 256.271L218.531 255.537ZM260.393 254.122L264.781 212.007L291.975 214.841L291.267 221.64L271.292 219.558L270.233 229.726L282.988 231.055L282.279 237.853L269.524 236.524L267.612 254.874L260.393 254.122ZM294.528 257.679L298.917 215.564L317.568 217.508C322.421 218.014 325.805 219.583 327.72 222.215C329.675 224.851 330.459 228.035 330.07 231.765C329.798 234.372 328.801 236.741 327.079 238.873C325.357 241.004 323.048 242.345 320.153 242.895L326.776 261.039L318.654 260.193L312.25 242.862L303.466 241.946L301.748 258.431L294.528 257.679ZM304.181 235.088L315.732 236.292C317.898 236.517 319.541 236.121 320.661 235.102C321.78 234.084 322.43 232.712 322.61 230.987C322.785 229.303 322.45 227.849 321.605 226.625C320.763 225.362 319.219 224.613 316.973 224.379L305.422 223.175L304.181 235.088ZM335.715 261.971L340.103 219.856L367.538 222.715L366.829 229.514L346.614 227.407L345.555 237.575L358.009 238.872L357.3 245.671L344.846 244.373L343.643 255.925L365.181 258.169L364.473 264.968L335.715 261.971ZM372.612 265.816L377 223.701L404.435 226.56L403.727 233.358L383.512 231.252L382.452 241.42L394.906 242.717L394.198 249.516L381.744 248.218L380.54 259.769L402.079 262.014L401.37 268.812L372.612 265.816Z" fill="white"/>
<path fill-rule="evenodd" clip-rule="evenodd" d="M131.439 102.917C134.547 107.718 137.128 115.01 139.151 124.125C141.152 133.144 142.518 143.518 143.425 154.177C144.116 162.302 144.535 170.529 144.772 178.362L150.278 178.047C149.403 149.382 146.104 115.41 136.063 99.9036C117.013 70.4842 80.3778 60.4462 54.2352 77.4832C28.0926 94.5202 22.3427 132.181 41.3924 161.6C55.9538 184.088 111.651 209.367 137.089 220.031C142.855 222.448 149.037 218.959 150.191 213.109L144.217 213.451C143.21 215.029 141.187 215.756 139.22 214.931C126.58 209.632 106.502 200.734 87.8281 190.409C78.4892 185.245 69.5966 179.776 62.1969 174.276C54.7177 168.716 49.125 163.387 46.0166 158.586C28.2865 131.205 34.1369 97.1692 57.2352 82.1162C80.3335 67.0632 113.709 75.5358 131.439 102.917Z" fill="white"/>
</svg>
