<svg width="1039" height="37" viewBox="0 0 1039 37" fill="none" xmlns="http://www.w3.org/2000/svg">
<path d="M0.474609 36V0.999998H23.0746V6.65H6.47461V15.1H17.0746V20.75H6.47461V36H0.474609ZM337.429 36.6C335.529 36.6 333.796 36.3667 332.229 35.9C330.663 35.4 329.229 34.6333 327.929 33.6C326.629 32.5333 325.613 31.0833 324.879 29.25C324.146 27.3833 323.779 25.1833 323.779 22.65V0.999998H329.779V22.65C329.779 25.6833 330.429 27.8167 331.729 29.05C333.063 30.25 334.963 30.85 337.429 30.85C339.896 30.85 341.779 30.2333 343.079 29C344.413 27.7667 345.079 25.65 345.079 22.65V0.999998H351.079V22.65C351.079 25.15 350.713 27.3333 349.979 29.2C349.279 31.0333 348.279 32.4833 346.979 33.55C345.713 34.5833 344.279 35.35 342.679 35.85C341.113 36.35 339.363 36.6 337.429 36.6ZM646.198 36V20.8H630.898V36H624.898V0.999998H630.898V15.15H646.198V0.999998H652.148V36H646.198ZM925.094 36V0.999998H931.094V30.25H948.094V36H925.094Z" fill="#E93C24"/>
<path d="M27.5938 36V0.999998H43.0938C47.1271 0.999998 50.0438 2 51.8438 4C53.6771 6 54.5938 8.55 54.5938 11.65C54.5938 13.8167 53.9771 15.85 52.7437 17.75C51.5104 19.65 49.7271 20.95 47.3938 21.65L54.3938 36H47.6438L40.8938 22.3H33.5938V36H27.5938ZM33.5938 16.6H43.1938C44.9938 16.6 46.3104 16.1333 47.1438 15.2C47.9771 14.2667 48.3938 13.0833 48.3938 11.65C48.3938 10.25 47.9938 9.08333 47.1938 8.15C46.3938 7.18333 45.0604 6.7 43.1938 6.7H33.5938V16.6ZM309.096 6.75V36H303.096V6.75H293.146V0.999998H319.046V6.75H309.096ZM385.282 36H379.832L365.332 13.9C364.865 13.2 364.382 12.3333 363.882 11.3C363.982 12.1 364.032 12.9667 364.032 13.9V36H358.082V0.999998H363.882L378.032 22.75C378.365 23.25 378.849 24.1333 379.482 25.4C379.382 24.5 379.332 23.6167 379.332 22.75V0.999998H385.282V36ZM580.914 36V0.999998H596.414C600.447 0.999998 603.364 2 605.164 4C606.997 6 607.914 8.55 607.914 11.65C607.914 13.8167 607.297 15.85 606.064 17.75C604.831 19.65 603.047 20.95 600.714 21.65L607.714 36H600.964L594.214 22.3H586.914V36H580.914ZM586.914 16.6H596.514C598.314 16.6 599.631 16.1333 600.464 15.2C601.297 14.2667 601.714 13.0833 601.714 11.65C601.714 10.25 601.314 9.08333 600.514 8.15C599.714 7.18333 598.381 6.7 596.514 6.7H586.914V16.6ZM659.641 36V0.999998H665.641V36H659.641ZM903.725 36.6C901.558 36.6 899.592 36.25 897.825 35.55C896.058 34.85 894.592 33.9167 893.425 32.75C892.292 31.55 891.325 30.1667 890.525 28.6C889.758 27.0333 889.208 25.4167 888.875 23.75C888.542 22.05 888.375 20.3 888.375 18.5C888.375 16.7 888.542 14.9667 888.875 13.3C889.208 11.6 889.758 9.96667 890.525 8.4C891.325 6.83333 892.292 5.46667 893.425 4.3C894.592 3.1 896.058 2.15 897.825 1.45C899.592 0.749999 901.558 0.399999 903.725 0.399999C906.425 0.399999 908.792 0.933333 910.825 2C912.892 3.03333 914.492 4.45 915.625 6.25C916.792 8.01666 917.658 9.93333 918.225 12C918.792 14.0667 919.075 16.2333 919.075 18.5C919.075 20.7667 918.792 22.9333 918.225 25C917.658 27.0667 916.792 29 915.625 30.8C914.492 32.5667 912.892 33.9833 910.825 35.05C908.792 36.0833 906.425 36.6 903.725 36.6ZM903.725 30.85C905.325 30.85 906.742 30.4667 907.975 29.7C909.208 28.9333 910.158 27.9333 910.825 26.7C911.525 25.4333 912.042 24.1167 912.375 22.75C912.708 21.35 912.875 19.9333 912.875 18.5C912.875 16.9667 912.708 15.5167 912.375 14.15C912.042 12.75 911.525 11.4333 910.825 10.2C910.158 8.96667 909.208 7.98333 907.975 7.25C906.775 6.51667 905.358 6.15 903.725 6.15C901.592 6.15 899.808 6.83333 898.375 8.2C896.942 9.53333 895.942 11.0833 895.375 12.85C894.842 14.6167 894.575 16.5 894.575 18.5C894.575 20 894.742 21.45 895.075 22.85C895.408 24.25 895.908 25.5667 896.575 26.8C897.275 28.0333 898.225 29.0167 899.425 29.75C900.658 30.4833 902.092 30.85 903.725 30.85ZM952.115 36V0.999998H974.915V6.65H958.115V15.1H968.465V20.75H958.115V30.35H976.015V36H952.115Z" fill="#FF6F1E"/>
<path d="M60.5723 36V0.999998H83.3723V6.65H66.5723V15.1H76.9223V20.75H66.5723V30.35H84.4723V36H60.5723ZM262.418 36V0.999998H277.918C281.951 0.999998 284.868 2 286.668 4C288.501 6 289.418 8.55 289.418 11.65C289.418 13.8167 288.801 15.85 287.568 17.75C286.335 19.65 284.551 20.95 282.218 21.65L289.218 36H282.468L275.718 22.3H268.418V36H262.418ZM268.418 16.6H278.018C279.818 16.6 281.135 16.1333 281.968 15.2C282.801 14.2667 283.218 13.0833 283.218 11.65C283.218 10.25 282.818 9.08333 282.018 8.15C281.218 7.18333 279.885 6.7 278.018 6.7H268.418V16.6ZM392.775 36V0.999998H398.775V36H392.775ZM559.545 36.6C557.379 36.6 555.412 36.25 553.645 35.55C551.879 34.85 550.412 33.9167 549.245 32.75C548.112 31.55 547.145 30.1667 546.345 28.6C545.579 27.0333 545.029 25.4167 544.695 23.75C544.362 22.05 544.195 20.3 544.195 18.5C544.195 16.7 544.362 14.9667 544.695 13.3C545.029 11.6 545.579 9.96667 546.345 8.4C547.145 6.83333 548.112 5.46667 549.245 4.3C550.412 3.1 551.879 2.15 553.645 1.45C555.412 0.749999 557.379 0.399999 559.545 0.399999C562.245 0.399999 564.612 0.933333 566.645 2C568.712 3.03333 570.312 4.45 571.445 6.25C572.612 8.01666 573.479 9.93333 574.045 12C574.612 14.0667 574.895 16.2333 574.895 18.5C574.895 20.7667 574.612 22.9333 574.045 25C573.479 27.0667 572.612 29 571.445 30.8C570.312 32.5667 568.712 33.9833 566.645 35.05C564.612 36.0833 562.245 36.6 559.545 36.6ZM559.545 30.85C561.145 30.85 562.562 30.4667 563.795 29.7C565.029 28.9333 565.979 27.9333 566.645 26.7C567.345 25.4333 567.862 24.1167 568.195 22.75C568.529 21.35 568.695 19.9333 568.695 18.5C568.695 16.9667 568.529 15.5167 568.195 14.15C567.862 12.75 567.345 11.4333 566.645 10.2C565.979 8.96667 565.029 7.98333 563.795 7.25C562.595 6.51667 561.179 6.15 559.545 6.15C557.412 6.15 555.629 6.83333 554.195 8.2C552.762 9.53333 551.762 11.0833 551.195 12.85C550.662 14.6167 550.395 16.5 550.395 18.5C550.395 20 550.562 21.45 550.895 22.85C551.229 24.25 551.729 25.5667 552.395 26.8C553.095 28.0333 554.045 29.0167 555.245 29.75C556.479 30.4833 557.912 30.85 559.545 30.85ZM687.231 36.6C684.631 36.6 682.314 36.1 680.281 35.1C678.281 34.0667 676.681 32.6833 675.481 30.95C674.281 29.2167 673.381 27.3 672.781 25.2C672.181 23.1 671.881 20.8667 671.881 18.5C671.881 16.7667 672.064 15.05 672.431 13.35C672.831 11.65 673.448 10.0167 674.281 8.45C675.114 6.88333 676.114 5.51666 677.281 4.35C678.448 3.15 679.881 2.2 681.581 1.5C683.314 0.766665 685.198 0.399999 687.231 0.399999C690.298 0.399999 692.764 1.03333 694.631 2.3C696.498 3.53333 698.114 5.25 699.481 7.45L694.131 10.5C692.198 7.63333 689.898 6.2 687.231 6.2C685.564 6.2 684.098 6.58333 682.831 7.35C681.598 8.08333 680.648 9.08333 679.981 10.35C679.314 11.5833 678.831 12.8833 678.531 14.25C678.231 15.6167 678.081 17.0333 678.081 18.5C678.081 21.9667 678.848 24.8833 680.381 27.25C681.914 29.6167 684.198 30.8 687.231 30.8C689.164 30.8 690.764 30.1667 692.031 28.9C693.331 27.6333 693.981 26.0833 693.981 24.25V23.7H687.831V18.05H700.081V22.9C700.081 27.2 698.881 30.5667 696.481 33C694.081 35.4 690.998 36.6 687.231 36.6ZM868.256 36.6C866.09 36.6 864.123 36.25 862.356 35.55C860.59 34.85 859.123 33.9167 857.956 32.75C856.823 31.55 855.856 30.1667 855.056 28.6C854.29 27.0333 853.74 25.4167 853.406 23.75C853.073 22.05 852.906 20.3 852.906 18.5C852.906 16.7 853.073 14.9667 853.406 13.3C853.74 11.6 854.29 9.96667 855.056 8.4C855.856 6.83333 856.823 5.46667 857.956 4.3C859.123 3.1 860.59 2.15 862.356 1.45C864.123 0.749999 866.09 0.399999 868.256 0.399999C870.956 0.399999 873.323 0.933333 875.356 2C877.423 3.03333 879.023 4.45 880.156 6.25C881.323 8.01666 882.19 9.93333 882.756 12C883.323 14.0667 883.606 16.2333 883.606 18.5C883.606 20.7667 883.323 22.9333 882.756 25C882.19 27.0667 881.323 29 880.156 30.8C879.023 32.5667 877.423 33.9833 875.356 35.05C873.323 36.0833 870.956 36.6 868.256 36.6ZM868.256 30.85C869.856 30.85 871.273 30.4667 872.506 29.7C873.74 28.9333 874.69 27.9333 875.356 26.7C876.056 25.4333 876.573 24.1167 876.906 22.75C877.24 21.35 877.406 19.9333 877.406 18.5C877.406 16.9667 877.24 15.5167 876.906 14.15C876.573 12.75 876.056 11.4333 875.356 10.2C874.69 8.96667 873.74 7.98333 872.506 7.25C871.306 6.51667 869.89 6.15 868.256 6.15C866.123 6.15 864.34 6.83333 862.906 8.2C861.473 9.53333 860.473 11.0833 859.906 12.85C859.373 14.6167 859.106 16.5 859.106 18.5C859.106 20 859.273 21.45 859.606 22.85C859.94 24.25 860.44 25.5667 861.106 26.8C861.806 28.0333 862.756 29.0167 863.956 29.75C865.19 30.4833 866.623 30.85 868.256 30.85ZM981.529 36V0.999998H997.029C1001.06 0.999998 1003.98 2 1005.78 4C1007.61 6 1008.53 8.55 1008.53 11.65C1008.53 13.8167 1007.91 15.85 1006.68 17.75C1005.45 19.65 1003.66 20.95 1001.33 21.65L1008.33 36H1001.58L994.829 22.3H987.529V36H981.529ZM987.529 16.6H997.129C998.929 16.6 1000.25 16.1333 1001.08 15.2C1001.91 14.2667 1002.33 13.0833 1002.33 11.65C1002.33 10.25 1001.93 9.08333 1001.13 8.15C1000.33 7.18333 998.996 6.7 997.129 6.7H987.529V16.6Z" fill="#FFD600"/>
<path d="M89.9863 36V0.999998H112.786V6.65H95.9863V15.1H106.336V20.75H95.9863V30.35H113.886V36H89.9863ZM241.049 36.6C238.883 36.6 236.916 36.25 235.149 35.55C233.383 34.85 231.916 33.9167 230.749 32.75C229.616 31.55 228.649 30.1667 227.849 28.6C227.083 27.0333 226.533 25.4167 226.199 23.75C225.866 22.05 225.699 20.3 225.699 18.5C225.699 16.7 225.866 14.9667 226.199 13.3C226.533 11.6 227.083 9.96667 227.849 8.4C228.649 6.83333 229.616 5.46667 230.749 4.3C231.916 3.1 233.383 2.15 235.149 1.45C236.916 0.749999 238.883 0.399999 241.049 0.399999C243.749 0.399999 246.116 0.933333 248.149 2C250.216 3.03333 251.816 4.45 252.949 6.25C254.116 8.01666 254.983 9.93333 255.549 12C256.116 14.0667 256.399 16.2333 256.399 18.5C256.399 20.7667 256.116 22.9333 255.549 25C254.983 27.0667 254.116 29 252.949 30.8C251.816 32.5667 250.216 33.9833 248.149 35.05C246.116 36.0833 243.749 36.6 241.049 36.6ZM241.049 30.85C242.649 30.85 244.066 30.4667 245.299 29.7C246.533 28.9333 247.483 27.9333 248.149 26.7C248.849 25.4333 249.366 24.1167 249.699 22.75C250.033 21.35 250.199 19.9333 250.199 18.5C250.199 16.9667 250.033 15.5167 249.699 14.15C249.366 12.75 248.849 11.4333 248.149 10.2C247.483 8.96667 246.533 7.98333 245.299 7.25C244.099 6.51667 242.683 6.15 241.049 6.15C238.916 6.15 237.133 6.83333 235.699 8.2C234.266 9.53333 233.266 11.0833 232.699 12.85C232.166 14.6167 231.899 16.5 231.899 18.5C231.899 20 232.066 21.45 232.399 22.85C232.733 24.25 233.233 25.5667 233.899 26.8C234.599 28.0333 235.549 29.0167 236.749 29.75C237.983 30.4833 239.416 30.85 241.049 30.85ZM419.966 6.75V36H413.966V6.75H404.016V0.999998H429.916V6.75H419.966ZM518.326 36V0.999998H540.926V6.65H524.326V15.1H534.926V20.75H524.326V36H518.326ZM727.263 36V20.8H711.963V36H705.963V0.999998H711.963V15.15H727.263V0.999998H733.213V36H727.263ZM840.964 36V20.8H825.664V36H819.664V0.999998H825.664V15.15H840.964V0.999998H846.914V36H840.964ZM1025.71 36.6C1022.51 36.6 1019.74 35.8 1017.41 34.2C1015.11 32.5667 1013.47 30.35 1012.51 27.55L1018.06 25.5C1018.79 27.1333 1019.84 28.45 1021.21 29.45C1022.57 30.4167 1024.14 30.9 1025.91 30.9C1027.74 30.9 1029.19 30.4833 1030.26 29.65C1031.36 28.8167 1031.91 27.6167 1031.91 26.05C1031.91 25.4167 1031.76 24.8333 1031.46 24.3C1031.16 23.7333 1030.81 23.2667 1030.41 22.9C1030.04 22.5333 1029.47 22.1667 1028.71 21.8C1027.94 21.4333 1027.29 21.15 1026.76 20.95C1026.22 20.7167 1025.44 20.4333 1024.41 20.1C1023.07 19.6333 1022.04 19.2667 1021.31 19C1020.61 18.7333 1019.69 18.3 1018.56 17.7C1017.46 17.0667 1016.61 16.4333 1016.01 15.8C1015.44 15.1667 1014.92 14.3333 1014.46 13.3C1014.02 12.2333 1013.81 11.0667 1013.81 9.8C1013.81 7.13333 1014.84 4.9 1016.91 3.1C1018.97 1.3 1021.77 0.399999 1025.31 0.399999C1028.24 0.399999 1030.67 1.1 1032.61 2.5C1034.54 3.86667 1035.84 5.66667 1036.51 7.9L1031.11 9.7C1030.04 7.3 1027.97 6.1 1024.91 6.1C1023.34 6.1 1022.11 6.43333 1021.21 7.1C1020.34 7.73333 1019.91 8.65 1019.91 9.85C1019.91 10.65 1020.24 11.3667 1020.91 12C1021.61 12.6333 1022.34 13.1167 1023.11 13.45C1023.91 13.75 1025.07 14.15 1026.61 14.65C1027.61 15.0167 1028.36 15.3 1028.86 15.5C1029.39 15.6667 1030.12 15.9667 1031.06 16.4C1031.99 16.8333 1032.72 17.2333 1033.26 17.6C1033.79 17.9333 1034.39 18.4 1035.06 19C1035.76 19.6 1036.29 20.2333 1036.66 20.9C1037.02 21.5333 1037.34 22.3 1037.61 23.2C1037.87 24.0667 1038.01 25.0167 1038.01 26.05C1038.01 29.3167 1036.84 31.9 1034.51 33.8C1032.21 35.6667 1029.27 36.6 1025.71 36.6Z" fill="#8ED100"/>
<path d="M144.506 36.6C142.34 36.6 140.373 36.25 138.606 35.55C136.84 34.85 135.373 33.9167 134.206 32.75C133.073 31.55 132.106 30.1667 131.306 28.6C130.54 27.0333 129.99 25.4167 129.656 23.75C129.323 22.05 129.156 20.3 129.156 18.5C129.156 16.7 129.323 14.9667 129.656 13.3C129.99 11.6 130.54 9.96667 131.306 8.4C132.106 6.83333 133.073 5.46667 134.206 4.3C135.373 3.1 136.84 2.15 138.606 1.45C140.373 0.749999 142.34 0.399999 144.506 0.399999C147.206 0.399999 149.573 0.933333 151.606 2C153.673 3.03333 155.273 4.45 156.406 6.25C157.573 8.01666 158.44 9.93333 159.006 12C159.573 14.0667 159.856 16.2333 159.856 18.5C159.856 20.7667 159.573 22.9333 159.006 25C158.44 27.0667 157.573 29 156.406 30.8C155.273 32.5667 153.673 33.9833 151.606 35.05C149.573 36.0833 147.206 36.6 144.506 36.6ZM144.506 30.85C146.106 30.85 147.523 30.4667 148.756 29.7C149.99 28.9333 150.94 27.9333 151.606 26.7C152.306 25.4333 152.823 24.1167 153.156 22.75C153.49 21.35 153.656 19.9333 153.656 18.5C153.656 16.9667 153.49 15.5167 153.156 14.15C152.823 12.75 152.306 11.4333 151.606 10.2C150.94 8.96667 149.99 7.98333 148.756 7.25C147.556 6.51667 146.14 6.15 144.506 6.15C142.373 6.15 140.59 6.83333 139.156 8.2C137.723 9.53333 136.723 11.0833 136.156 12.85C135.623 14.6167 135.356 16.5 135.356 18.5C135.356 20 135.523 21.45 135.856 22.85C136.19 24.25 136.69 25.5667 137.356 26.8C138.056 28.0333 139.006 29.0167 140.206 29.75C141.44 30.4833 142.873 30.85 144.506 30.85ZM196.412 36V0.999998H210.962C214.995 0.999998 217.962 2.05 219.862 4.15C221.762 6.25 222.712 8.81667 222.712 11.85C222.712 14.7167 221.712 17.25 219.712 19.45C217.745 21.65 214.829 22.75 210.962 22.75H202.412V36H196.412ZM211.262 17.05C213.029 17.05 214.345 16.5333 215.212 15.5C216.079 14.4667 216.512 13.25 216.512 11.85C216.512 10.5167 216.095 9.33333 215.262 8.3C214.462 7.23333 213.129 6.7 211.262 6.7H202.412V17.05H211.262ZM435.148 36V0.999998H441.148V36H435.148ZM489.253 36.6C486.053 36.6 483.286 35.8 480.953 34.2C478.653 32.5667 477.019 30.35 476.053 27.55L481.603 25.5C482.336 27.1333 483.386 28.45 484.753 29.45C486.119 30.4167 487.686 30.9 489.453 30.9C491.286 30.9 492.736 30.4833 493.803 29.65C494.903 28.8167 495.453 27.6167 495.453 26.05C495.453 25.4167 495.303 24.8333 495.003 24.3C494.703 23.7333 494.353 23.2667 493.953 22.9C493.586 22.5333 493.019 22.1667 492.253 21.8C491.486 21.4333 490.836 21.15 490.303 20.95C489.769 20.7167 488.986 20.4333 487.953 20.1C486.619 19.6333 485.586 19.2667 484.853 19C484.153 18.7333 483.236 18.3 482.103 17.7C481.003 17.0667 480.153 16.4333 479.553 15.8C478.986 15.1667 478.469 14.3333 478.003 13.3C477.569 12.2333 477.353 11.0667 477.353 9.8C477.353 7.13333 478.386 4.9 480.453 3.1C482.519 1.3 485.319 0.399999 488.853 0.399999C491.786 0.399999 494.219 1.1 496.153 2.5C498.086 3.86667 499.386 5.66667 500.053 7.9L494.653 9.7C493.586 7.3 491.519 6.1 488.453 6.1C486.886 6.1 485.653 6.43333 484.753 7.1C483.886 7.73333 483.453 8.65 483.453 9.85C483.453 10.65 483.786 11.3667 484.453 12C485.153 12.6333 485.886 13.1167 486.653 13.45C487.453 13.75 488.619 14.15 490.153 14.65C491.153 15.0167 491.903 15.3 492.403 15.5C492.936 15.6667 493.669 15.9667 494.603 16.4C495.536 16.8333 496.269 17.2333 496.803 17.6C497.336 17.9333 497.936 18.4 498.603 19C499.303 19.6 499.836 20.2333 500.203 20.9C500.569 21.5333 500.886 22.3 501.153 23.2C501.419 24.0667 501.553 25.0167 501.553 26.05C501.553 29.3167 500.386 31.9 498.053 33.8C495.753 35.6667 492.819 36.6 489.253 36.6ZM739.955 24V18.35H752.655V24H739.955ZM802.088 36.6C799.988 36.6 798.088 36.25 796.388 35.55C794.688 34.85 793.288 33.9167 792.188 32.75C791.121 31.5833 790.221 30.2 789.488 28.6C788.754 27 788.221 25.3667 787.888 23.7C787.588 22.0333 787.438 20.3 787.438 18.5C787.438 16.3667 787.704 14.2833 788.238 12.25C788.771 10.2167 789.588 8.3 790.688 6.5C791.788 4.66666 793.321 3.2 795.288 2.1C797.254 0.966666 799.521 0.399999 802.088 0.399999C805.188 0.399999 807.788 1.13333 809.888 2.6C811.988 4.03333 813.454 5.78333 814.288 7.85L808.888 10.3C807.954 8.86667 806.971 7.81666 805.938 7.15C804.938 6.48333 803.654 6.15 802.088 6.15C800.554 6.15 799.204 6.53333 798.038 7.3C796.904 8.03333 796.021 9.03333 795.388 10.3C794.788 11.5333 794.338 12.85 794.038 14.25C793.771 15.6167 793.638 17.0333 793.638 18.5C793.638 21.7667 794.354 24.6333 795.788 27.1C797.254 29.5667 799.354 30.8 802.088 30.8C804.754 30.8 806.988 29.3 808.788 26.3L814.338 28.4C811.904 33.8667 807.821 36.6 802.088 36.6Z" fill="#00A3FF"/>
<path d="M165.875 36V0.999998H180.425C184.458 0.999998 187.425 2.05 189.325 4.15C191.225 6.25 192.175 8.81667 192.175 11.85C192.175 14.7167 191.175 17.25 189.175 19.45C187.208 21.65 184.292 22.75 180.425 22.75H171.875V36H165.875ZM180.725 17.05C182.492 17.05 183.808 16.5333 184.675 15.5C185.542 14.4667 185.975 13.25 185.975 11.85C185.975 10.5167 185.558 9.33333 184.725 8.3C183.925 7.23333 182.592 6.7 180.725 6.7H171.875V17.05H180.725ZM448.639 36V0.999998H471.439V6.65H454.639V15.1H464.989V20.75H454.639V30.35H472.539V36H448.639ZM770.62 36.6C767.42 36.6 764.653 35.8 762.32 34.2C760.02 32.5667 758.387 30.35 757.42 27.55L762.97 25.5C763.703 27.1333 764.753 28.45 766.12 29.45C767.487 30.4167 769.053 30.9 770.82 30.9C772.653 30.9 774.103 30.4833 775.17 29.65C776.27 28.8167 776.82 27.6167 776.82 26.05C776.82 25.4167 776.67 24.8333 776.37 24.3C776.07 23.7333 775.72 23.2667 775.32 22.9C774.953 22.5333 774.387 22.1667 773.62 21.8C772.853 21.4333 772.203 21.15 771.67 20.95C771.137 20.7167 770.353 20.4333 769.32 20.1C767.987 19.6333 766.953 19.2667 766.22 19C765.52 18.7333 764.603 18.3 763.47 17.7C762.37 17.0667 761.52 16.4333 760.92 15.8C760.353 15.1667 759.837 14.3333 759.37 13.3C758.937 12.2333 758.72 11.0667 758.72 9.8C758.72 7.13333 759.753 4.9 761.82 3.1C763.887 1.3 766.687 0.399999 770.22 0.399999C773.153 0.399999 775.587 1.1 777.52 2.5C779.453 3.86667 780.753 5.66667 781.42 7.9L776.02 9.7C774.953 7.3 772.887 6.1 769.82 6.1C768.253 6.1 767.02 6.43333 766.12 7.1C765.253 7.73333 764.82 8.65 764.82 9.85C764.82 10.65 765.153 11.3667 765.82 12C766.52 12.6333 767.253 13.1167 768.02 13.45C768.82 13.75 769.987 14.15 771.52 14.65C772.52 15.0167 773.27 15.3 773.77 15.5C774.303 15.6667 775.037 15.9667 775.97 16.4C776.903 16.8333 777.637 17.2333 778.17 17.6C778.703 17.9333 779.303 18.4 779.97 19C780.67 19.6 781.203 20.2333 781.57 20.9C781.937 21.5333 782.253 22.3 782.52 23.2C782.787 24.0667 782.92 25.0167 782.92 26.05C782.92 29.3167 781.753 31.9 779.42 33.8C777.12 35.6667 774.187 36.6 770.62 36.6Z" fill="#2958FF"/>
</svg>
