<svg width="22" height="22" viewBox="0 0 22 22" fill="none" xmlns="http://www.w3.org/2000/svg">
<path d="M2.5 5C3.88071 5 5 3.88071 5 2.5C5 1.11929 3.88071 0 2.5 0C1.11929 0 0 1.11929 0 2.5C0 3.88071 1.11929 5 2.5 5Z" fill="white"/>
<path d="M7.54672 7.36174V21.9988H12.1777V14.7604C12.1777 12.8505 12.5439 11.0008 14.9571 11.0008C17.3371 11.0008 17.3665 13.1845 17.3665 14.881V22H22V13.9731C22 10.0301 21.135 7 16.4389 7C14.1842 7 12.6729 8.21423 12.0548 9.36334H11.9922V7.36174H7.54672ZM0 7.36174H4.63837V21.9988H0V7.36174Z" fill="white"/>
</svg>
