<svg width="599" height="259" viewBox="0 0 599 259" fill="none" xmlns="http://www.w3.org/2000/svg">
<path d="M83.6182 46.3568H46.352V137.661H86.1756C115.91 137.661 119.99 100.422 102.663 90.3634C115.526 74.4783 105.783 46.3568 83.6182 46.3568ZM67.4208 66.5925H83.6182C90.1945 66.5925 90.3163 81.2207 83.6182 81.2207H67.4208V66.5925ZM86.1756 117.426H67.6643V102.675H86.1756C92.5085 102.554 92.5085 117.304 86.1756 117.426Z" fill="white"/>
<path d="M144.003 138.149V116.207H145.343L163.367 138.149H188.09L168.482 114.256C199.416 103.041 195.518 46.3568 156.791 46.3568H124.396V138.149H144.003ZM156.791 65.983C174.084 65.983 174.084 96.8242 156.791 96.8242H144.003V65.983H156.791Z" fill="white"/>
<path d="M244.111 46.113C232.054 46.113 221.093 51.2328 213.299 59.766C205.627 67.9334 200.877 79.2703 200.877 91.8262C200.877 104.138 205.627 115.597 213.299 123.764C221.093 132.176 232.054 137.418 244.111 137.418C256.167 137.418 267.006 132.176 274.801 123.764C282.595 115.597 287.344 104.138 287.344 91.8262C287.344 79.2703 282.595 67.9334 274.801 59.766C267.006 51.2328 256.167 46.113 244.111 46.113ZM260.186 110.111C256.046 114.5 250.444 117.304 244.111 117.304C237.778 117.304 232.176 114.5 228.035 110.111C223.651 105.357 220.972 98.8965 220.972 91.8262C220.972 84.634 223.651 78.0513 228.035 73.419C232.176 69.0305 237.778 66.2268 244.111 66.2268C250.444 66.2268 256.046 69.0305 260.186 73.419C264.449 78.0513 267.128 84.634 267.128 91.8262C267.128 98.8965 264.449 105.357 260.186 110.111Z" fill="white"/>
<path d="M339.788 46.113C327.731 46.113 316.771 51.2328 308.976 59.766C301.304 67.9334 296.554 79.2703 296.554 91.8262C296.554 104.138 301.304 115.597 308.976 123.764C316.771 132.176 327.731 137.418 339.788 137.418C351.845 137.418 362.684 132.176 370.478 123.764C378.272 115.597 383.022 104.138 383.022 91.8262C383.022 79.2703 378.272 67.9334 370.478 59.766C362.684 51.2328 351.845 46.113 339.788 46.113ZM355.864 110.111C351.723 114.5 346.121 117.304 339.788 117.304C333.455 117.304 327.853 114.5 323.712 110.111C319.328 105.357 316.649 98.8965 316.649 91.8262C316.649 84.634 319.328 78.0513 323.712 73.419C327.853 69.0305 333.455 66.2268 339.788 66.2268C346.121 66.2268 351.723 69.0305 355.864 73.419C360.126 78.0513 362.805 84.634 362.805 91.8262C362.805 98.8965 360.126 105.357 355.864 110.111Z" fill="white"/>
<path d="M461.649 46.3568H440.58L416.101 90.6072V46.3568H395.763V137.661H416.101V100.969H420.364L424.505 108.405L428.28 115.353L440.58 137.661H461.771L436.318 92.3138L461.649 46.3568Z" fill="white"/>
<path d="M545.748 110.843C545.748 94.6299 533.204 85.853 516.642 83.9026C513.962 83.6588 511.039 83.6588 507.995 83.415C487.048 81.3426 493.624 64.0325 510.187 64.1544C517.616 64.1544 524.923 67.5677 525.288 74.1504L545.748 70.9978C543.069 35.89 475.478 37.9455 475.478 74.638C475.478 86.3406 482.542 95.8489 494.477 99.1403C501.053 101.213 508.482 101.213 515.667 102.432C531.987 104.748 528.455 119.254 515.424 120.839C506.777 122.058 497.601 119.138 495.938 111.33L475.478 114.483C478.036 149.713 545.748 147.292 545.748 110.843Z" fill="white"/>
<path d="M37.2662 167.208H0V258.512H39.8237C68.7889 258.512 78.0442 225.921 57.3607 211.214C71.4798 197.699 59.431 167.208 37.2662 167.208ZM21.0688 187.444H37.2662C43.8426 187.444 43.9643 202.072 37.2662 202.072H21.0688V187.444ZM39.8237 238.277H21.3123V223.527H39.8237C46.1565 223.405 46.1565 238.155 39.8237 238.277Z" fill="white"/>
<path d="M97.6515 259V237.058H98.9911L117.015 259H141.738L122.13 235.107C153.064 223.892 149.167 167.208 110.439 167.208H78.0442V259H97.6515ZM110.439 186.834C127.732 186.834 127.732 217.675 110.439 217.675H97.6515V186.834H110.439Z" fill="white"/>
<path d="M181.561 167.208L151.48 258.512H171.819L176.203 245.103H213.225L217.731 258.512H237.948L207.867 167.208H181.561ZM182.901 224.746L194.714 188.906L206.527 224.746H182.901Z" fill="white"/>
<path d="M246.224 258.756H266.684V167.33H246.224V258.756Z" fill="white"/>
<path d="M335.696 226.818L300.744 167.33H280.406V258.756H300.744V202.072L333.991 258.756H356.034V167.33H335.696V226.818Z" fill="white"/>
<path d="M370.981 167.208V258.512C389.857 258.512 408.856 258.512 427.611 258.512V238.155H391.319V223.039H420.791V202.559H391.319V187.565H427.611V167.208H370.981Z" fill="white"/>
<path d="M461.627 259V237.058H462.966L480.99 259H505.713L486.105 235.107C517.039 223.892 513.142 167.208 474.414 167.208H442.019V259H461.627ZM474.414 186.834C491.708 186.834 491.708 217.675 474.414 217.675H461.627V186.834H474.414Z" fill="white"/>
<path d="M570.532 258.512V224.821L599 167.086H576.957L558.202 207.314L539.447 167.086H517.526L546.116 224.821V258.512H570.532Z" fill="white"/>
<path d="M263.097 87.4801C263.097 92.6435 258.915 96.8292 253.757 96.8292C248.598 96.8292 244.417 92.6435 244.417 87.4801C244.417 82.3167 248.598 78.131 253.757 78.131C258.915 78.131 263.097 82.3167 263.097 87.4801Z" fill="white"/>
<path d="M358.239 87.4801C358.239 92.6435 354.058 96.8292 348.899 96.8292C343.741 96.8292 339.559 92.6435 339.559 87.4801C339.559 82.3167 343.741 78.131 348.899 78.131C354.058 78.131 358.239 82.3167 358.239 87.4801Z" fill="white"/>
<path fill-rule="evenodd" clip-rule="evenodd" d="M210.376 29.0157C210.373 29.0143 210.37 29.0131 214.204 19.7969C218.038 10.5808 218.036 10.5796 218.033 10.5785L218.021 10.5734L218.014 10.5708C218.014 10.5708 218.021 10.5733 218.035 10.5791C218.063 10.5905 218.12 10.6135 218.205 10.6469C218.376 10.7139 218.659 10.8226 219.045 10.9639C219.818 11.2469 221.003 11.6592 222.535 12.1296C225.607 13.0734 230.023 14.2347 235.279 15.0646C245.918 16.7443 259.276 16.9539 271.864 11.9983L279.165 30.5797C262.063 37.3122 244.765 36.7759 232.171 34.7875C225.811 33.7833 220.466 32.38 216.683 31.2178C214.786 30.6352 213.268 30.1091 212.197 29.717C211.66 29.5208 211.234 29.3577 210.928 29.2373C210.774 29.177 210.65 29.1275 210.557 29.0897C210.51 29.0708 210.471 29.0549 210.44 29.0421L210.399 29.0252L210.376 29.0157Z" fill="white"/>
<path fill-rule="evenodd" clip-rule="evenodd" d="M372.411 13.013C372.415 13.0159 372.418 13.0188 366.433 21.0043C360.447 28.9898 360.451 28.9926 360.454 28.9952L360.461 29.0002L360.472 29.0087L360.488 29.0206C360.496 29.0263 360.497 29.0274 360.493 29.0241C360.484 29.0177 360.451 28.9938 360.395 28.9542C360.282 28.8749 360.076 28.7328 359.781 28.5402C359.191 28.1545 358.25 27.5702 356.993 26.884C354.472 25.5065 350.738 23.7511 346.064 22.3536C336.773 19.576 323.86 18.222 309.046 23.9918L301.813 5.38417C321.631 -2.33505 339.219 -0.530871 351.772 3.22199C358.02 5.08971 363.044 7.44255 366.549 9.35704C368.306 10.3168 369.696 11.1744 370.683 11.8191C371.177 12.1417 371.571 12.4119 371.861 12.6162C372.007 12.7183 372.126 12.8041 372.219 12.8717C372.266 12.9055 372.305 12.9348 372.339 12.9594L372.384 12.9927L372.402 13.0067L372.411 13.013Z" fill="white"/>
</svg>
