<svg width="62" height="116" viewBox="0 0 62 116" fill="none" xmlns="http://www.w3.org/2000/svg">
<path d="M31.4816 23.9986V24C31.4886 24 31.4941 23.9993 31.5003 23.9993C31.5059 23.9993 31.5121 24 31.5184 24V23.9986C37.8786 23.8869 43 18.7837 43 12.4993C43 6.21631 37.8779 1.11316 31.5184 1.00137V1C31.5114 1 31.5059 1.00069 31.5003 1.00069C31.4941 1.00069 31.4886 1 31.4816 1V1.00069C25.1214 1.11247 20 6.21495 20 12.4986C20 18.7837 25.1207 23.8869 31.4816 23.9986Z" fill="#2958FF"/>
<path d="M24.614 27.862C25.5639 27.1665 27.4338 26.2776 30.8247 26.2206C30.8532 26.2199 31.1461 26.2213 31.1753 26.2206C34.5662 26.2776 36.4361 27.1665 37.386 27.862C38.3183 28.6566 38.4283 28.3594 38.871 27.5865C39.2743 26.8842 53.5059 2.16531 53.6349 1.97871L53.6383 1.9726C53.6417 1.96785 53.6457 1.96377 53.6498 1.95902C54.4768 0.776278 55.8552 0 57.4189 0C59.9495 0 62 2.02959 62 4.53419C62 5.34508 61.782 6.10509 61.4052 6.76398V6.77008L43.4114 37.7508C43.4114 37.7508 42.361 39.3434 42.361 42.1249C42.361 44.9056 42.3569 111.148 42.3569 111.148C42.3569 113.827 40.1848 116 37.5062 116C34.8269 116 32.6548 113.83 32.6548 111.148V76.9165C32.6548 76.0805 31.715 75.558 30.9477 75.5384C30.1804 75.558 29.3452 76.0805 29.3452 76.9165V111.148C29.3452 113.83 27.1731 116 24.4938 116C21.8152 116 19.6431 113.827 19.6431 111.148C19.6431 111.148 19.639 44.9056 19.639 42.1249C19.639 39.3434 18.5886 37.7508 18.5886 37.7508L0.594793 6.77008V6.76398C0.217955 6.10509 0 5.34508 0 4.53419C0 2.02959 2.05054 0 4.58113 0C6.14484 0 7.52318 0.776278 8.35019 1.95902C8.35426 1.96377 8.35834 1.96785 8.36173 1.9726L8.36513 1.97871C8.49413 2.16531 22.7257 26.8842 23.129 27.5865C23.5717 28.3594 23.6817 28.6566 24.614 27.862Z" fill="#2958FF"/>
</svg>
