<svg width="912" height="53" viewBox="0 0 912 53" fill="none" xmlns="http://www.w3.org/2000/svg">
<path d="M31.1685 22.8755H20.6229V10.0889H13.2409V43.0439H20.6229V30.2574H31.1685V43.0439H38.5504V10.0889H31.1685V22.8755ZM244.019 9.95712C239.669 9.95712 235.714 11.8026 232.902 14.8784C230.134 17.8224 228.42 21.9088 228.42 26.4346C228.42 30.8726 230.134 35.0029 232.902 37.9469C235.714 40.9788 239.669 42.8682 244.019 42.8682C248.369 42.8682 252.279 40.9788 255.092 37.9469C257.904 35.0029 259.617 30.8726 259.617 26.4346C259.617 21.9088 257.904 17.8224 255.092 14.8784C252.279 11.8026 248.369 9.95712 244.019 9.95712ZM249.819 33.0256C248.325 34.6075 246.304 35.6181 244.019 35.6181C241.734 35.6181 239.713 34.6075 238.219 33.0256C236.637 31.312 235.67 28.9831 235.67 26.4346C235.67 23.8422 236.637 21.4694 238.219 19.7997C239.713 18.2178 241.734 17.2072 244.019 17.2072C246.304 17.2072 248.325 18.2178 249.819 19.7997C251.357 21.4694 252.323 23.8422 252.323 26.4346C252.323 28.9831 251.357 31.312 249.819 33.0256Z" fill="#FF6F1E"/>
<path d="M41.5716 43.0439H48.9535V10.0889H41.5716V43.0439ZM219.027 22.8755H208.482V10.0889H201.1V43.0439H208.482V30.2574H219.027V43.0439H226.409V10.0889H219.027V22.8755ZM276.342 9.95712C271.992 9.95712 268.037 11.8026 265.225 14.8784C262.457 17.8224 260.743 21.9088 260.743 26.4346C260.743 30.8726 262.457 35.0029 265.225 37.9469C268.037 40.9788 271.992 42.8682 276.342 42.8682C280.692 42.8682 284.603 40.9788 287.415 37.9469C290.227 35.0029 291.941 30.8726 291.941 26.4346C291.941 21.9088 290.227 17.8224 287.415 14.8784C284.603 11.8026 280.692 9.95712 276.342 9.95712ZM282.142 33.0256C280.648 34.6075 278.627 35.6181 276.342 35.6181C274.057 35.6181 272.036 34.6075 270.542 33.0256C268.96 31.312 267.993 28.9831 267.993 26.4346C267.993 23.8422 268.96 21.4694 270.542 19.7997C272.036 18.2178 274.057 17.2072 276.342 17.2072C278.627 17.2072 280.648 18.2178 282.142 19.7997C283.68 21.4694 284.647 23.8422 284.647 26.4346C284.647 28.9831 283.68 31.312 282.142 33.0256Z" fill="#FFD600"/>
<path d="M82.4653 26.0831H64.5817V31.8392H74.9076C70.2061 40.3636 58.6938 36.8045 58.6938 26.5225C58.6938 16.3284 71.0849 12.945 74.8637 22.1724L82.3774 21.1179C80.0047 14.1314 74.0288 9.56166 67.2181 9.56166C58.1665 9.56166 51.224 17.6906 51.224 26.5225C51.224 35.7938 58.6498 43.3515 67.2181 43.3515C75.347 43.3515 83.5199 36.6726 82.4653 26.0831ZM182.532 17.2072C185.959 17.2072 188.903 19.4042 190.266 22.2603L197.867 21.2058C195.363 14.4829 189.431 9.95712 182.532 9.95712C173.393 9.95712 166.406 17.8663 166.406 26.4346C166.406 35.4423 173.92 42.8682 182.532 42.8682C189.738 42.8682 195.758 37.9469 197.867 31.5756L190.266 30.521C188.728 33.5529 185.828 35.6181 182.532 35.6181C177.567 35.6181 173.92 31.0044 173.92 26.4346C173.92 21.6012 177.787 17.2072 182.532 17.2072ZM301.371 10.0889H293.989V43.0439H313.015V35.706H301.371V10.0889Z" fill="#8ED100"/>
<path d="M103.165 22.8755H92.6192V10.0889H85.2373V43.0439H92.6192V30.2574H103.165V43.0439H110.547V10.0889H103.165V22.8755ZM163.647 33.2893C163.647 27.4452 159.121 24.2816 153.145 23.5785C152.178 23.4906 151.124 23.4906 150.025 23.4028C142.467 22.6558 144.84 16.4163 150.816 16.4602C153.496 16.4602 156.133 17.6906 156.265 20.0633L163.251 19.4042C162.284 6.7495 138.293 7.01314 138.293 20.2391C138.293 24.4573 140.842 27.8846 145.148 29.071C147.521 29.818 150.201 29.818 152.793 30.2574C158.681 31.0923 157.407 36.3211 152.705 36.8923C149.586 37.3317 145.851 36.3211 145.675 33.465L138.733 34.0362C139.655 46.7349 163.647 46.4273 163.647 33.2893ZM315.974 10.045V42.9561C322.785 42.9561 329.64 42.9561 336.407 42.9561V35.6181H323.312V30.1695H333.946V22.7876H323.312V17.383H336.407V10.045H315.974ZM391.038 33.2893C391.038 27.4452 386.512 24.2816 380.536 23.5785C379.569 23.4906 378.515 23.4906 377.416 23.4028C369.859 22.6558 372.231 16.4163 378.207 16.4602C380.888 16.4602 383.524 17.6906 383.656 20.0633L390.642 19.4042C389.676 6.7495 365.684 7.01314 365.684 20.2391C365.684 24.4573 368.233 27.8846 372.539 29.071C374.912 29.818 377.592 29.818 380.185 30.2574C386.073 31.0923 384.798 36.3211 380.097 36.8923C376.977 37.3317 373.242 36.3211 373.066 33.465L366.124 34.0362C367.047 46.7349 391.038 46.4273 391.038 33.2893Z" fill="#00A3FF"/>
<path d="M113.612 32.718H135.582V25.9073H113.612V32.718ZM346.483 43.1318V35.2226H346.966L353.469 43.1318H362.389L355.315 34.5196C366.475 30.4771 365.069 10.045 351.096 10.045H339.408V43.1318H346.483ZM351.096 17.1193C357.336 17.1193 357.336 28.2362 351.096 28.2362H346.483V17.1193H351.096Z" fill="#2958FF"/>
<path d="M549.168 22.8755H538.623V10.0889H531.241V43.0439H538.623V30.2574H549.168V43.0439H556.55V10.0889H549.168V22.8755ZM762.019 9.95712C757.669 9.95712 753.714 11.8026 750.902 14.8784C748.134 17.8224 746.42 21.9088 746.42 26.4346C746.42 30.8726 748.134 35.0029 750.902 37.9469C753.714 40.9788 757.669 42.8682 762.019 42.8682C766.369 42.8682 770.279 40.9788 773.092 37.9469C775.904 35.0029 777.617 30.8726 777.617 26.4346C777.617 21.9088 775.904 17.8224 773.092 14.8784C770.279 11.8026 766.369 9.95712 762.019 9.95712ZM767.819 33.0256C766.325 34.6075 764.304 35.6181 762.019 35.6181C759.734 35.6181 757.713 34.6075 756.219 33.0256C754.637 31.312 753.67 28.9831 753.67 26.4346C753.67 23.8422 754.637 21.4694 756.219 19.7997C757.713 18.2178 759.734 17.2072 762.019 17.2072C764.304 17.2072 766.325 18.2178 767.819 19.7997C769.357 21.4694 770.323 23.8422 770.323 26.4346C770.323 28.9831 769.357 31.312 767.819 33.0256Z" fill="#FF6F1E"/>
<path d="M559.572 43.0439H566.954V10.0889H559.572V43.0439ZM737.027 22.8755H726.482V10.0889H719.1V43.0439H726.482V30.2574H737.027V43.0439H744.409V10.0889H737.027V22.8755ZM794.342 9.95712C789.992 9.95712 786.037 11.8026 783.225 14.8784C780.457 17.8224 778.743 21.9088 778.743 26.4346C778.743 30.8726 780.457 35.0029 783.225 37.9469C786.037 40.9788 789.992 42.8682 794.342 42.8682C798.692 42.8682 802.603 40.9788 805.415 37.9469C808.227 35.0029 809.941 30.8726 809.941 26.4346C809.941 21.9088 808.227 17.8224 805.415 14.8784C802.603 11.8026 798.692 9.95712 794.342 9.95712ZM800.142 33.0256C798.648 34.6075 796.627 35.6181 794.342 35.6181C792.057 35.6181 790.036 34.6075 788.542 33.0256C786.96 31.312 785.993 28.9831 785.993 26.4346C785.993 23.8422 786.96 21.4694 788.542 19.7997C790.036 18.2178 792.057 17.2072 794.342 17.2072C796.627 17.2072 798.648 18.2178 800.142 19.7997C801.68 21.4694 802.647 23.8422 802.647 26.4346C802.647 28.9831 801.68 31.312 800.142 33.0256Z" fill="#FFD600"/>
<path d="M600.465 26.0831H582.582V31.8392H592.908C588.206 40.3636 576.694 36.8045 576.694 26.5225C576.694 16.3284 589.085 12.945 592.864 22.1724L600.377 21.1179C598.005 14.1314 592.029 9.56166 585.218 9.56166C576.167 9.56166 569.224 17.6906 569.224 26.5225C569.224 35.7938 576.65 43.3515 585.218 43.3515C593.347 43.3515 601.52 36.6726 600.465 26.0831ZM700.532 17.2072C703.959 17.2072 706.903 19.4042 708.266 22.2603L715.867 21.2058C713.363 14.4829 707.431 9.95712 700.532 9.95712C691.393 9.95712 684.406 17.8663 684.406 26.4346C684.406 35.4423 691.92 42.8682 700.532 42.8682C707.738 42.8682 713.758 37.9469 715.867 31.5756L708.266 30.521C706.728 33.5529 703.828 35.6181 700.532 35.6181C695.567 35.6181 691.92 31.0044 691.92 26.4346C691.92 21.6012 695.787 17.2072 700.532 17.2072ZM819.371 10.0889H811.989V43.0439H831.015V35.706H819.371V10.0889Z" fill="#8ED100"/>
<path d="M621.165 22.8755H610.619V10.0889H603.237V43.0439H610.619V30.2574H621.165V43.0439H628.547V10.0889H621.165V22.8755ZM681.647 33.2893C681.647 27.4452 677.121 24.2816 671.145 23.5785C670.178 23.4906 669.124 23.4906 668.025 23.4028C660.467 22.6558 662.84 16.4163 668.816 16.4602C671.496 16.4602 674.133 17.6906 674.265 20.0633L681.251 19.4042C680.284 6.7495 656.293 7.01314 656.293 20.2391C656.293 24.4573 658.842 27.8846 663.148 29.071C665.521 29.818 668.201 29.818 670.793 30.2574C676.681 31.0923 675.407 36.3211 670.705 36.8923C667.586 37.3317 663.851 36.3211 663.675 33.465L656.733 34.0362C657.655 46.7349 681.647 46.4273 681.647 33.2893ZM833.974 10.045V42.9561C840.785 42.9561 847.64 42.9561 854.407 42.9561V35.6181H841.312V30.1695H851.946V22.7876H841.312V17.383H854.407V10.045H833.974ZM909.038 33.2893C909.038 27.4452 904.512 24.2816 898.536 23.5785C897.569 23.4906 896.515 23.4906 895.416 23.4028C887.859 22.6558 890.231 16.4163 896.207 16.4602C898.888 16.4602 901.524 17.6906 901.656 20.0633L908.642 19.4042C907.676 6.7495 883.684 7.01314 883.684 20.2391C883.684 24.4573 886.233 27.8846 890.539 29.071C892.912 29.818 895.592 29.818 898.185 30.2574C904.073 31.0923 902.798 36.3211 898.097 36.8923C894.977 37.3317 891.242 36.3211 891.066 33.465L884.124 34.0362C885.047 46.7349 909.038 46.4273 909.038 33.2893Z" fill="#00A3FF"/>
<path d="M631.612 32.718H653.582V25.9073H631.612V32.718ZM864.483 43.1318V35.2226H864.966L871.469 43.1318H880.389L873.315 34.5196C884.475 30.4771 883.069 10.045 869.096 10.045H857.408V43.1318H864.483ZM869.096 17.1193C875.336 17.1193 875.336 28.2362 869.096 28.2362H864.483V17.1193H869.096Z" fill="#2958FF"/>
<path d="M420.112 10V42.956H427.46V30.152H439.296V22.76H427.46V17.348H440.836V10H420.112ZM460.116 9.912C455.76 9.912 451.8 11.76 448.984 14.84C446.212 17.788 444.496 21.88 444.496 26.412C444.496 30.856 446.212 34.992 448.984 37.94C451.8 40.976 455.76 42.868 460.116 42.868C464.472 42.868 468.388 40.976 471.204 37.94C474.02 34.992 475.736 30.856 475.736 26.412C475.736 21.88 474.02 17.788 471.204 14.84C468.388 11.76 464.472 9.912 460.116 9.912ZM465.924 33.012C464.428 34.596 462.404 35.608 460.116 35.608C457.828 35.608 455.804 34.596 454.308 33.012C452.724 31.296 451.756 28.964 451.756 26.412C451.756 23.816 452.724 21.44 454.308 19.768C455.804 18.184 457.828 17.172 460.116 17.172C462.404 17.172 464.428 18.184 465.924 19.768C467.464 21.44 468.432 23.816 468.432 26.412C468.432 28.964 467.464 31.296 465.924 33.012ZM486.015 43.132V35.212H486.499L493.011 43.132H501.943L494.859 34.508C506.035 30.46 504.627 10 490.635 10H478.931V43.132H486.015ZM490.635 17.084C496.883 17.084 496.883 28.216 490.635 28.216H486.015V17.084H490.635Z" fill="white"/>
</svg>
