<svg width="229" height="281" viewBox="0 0 229 281" fill="none" xmlns="http://www.w3.org/2000/svg">
<rect x="-0.817084" y="0.493446" width="173.65" height="244.65" transform="matrix(-0.970835 -0.23975 -0.23975 0.970835 227.508 41.8179)" fill="white" stroke="black" stroke-width="1.3499"/>
<path d="M119.256 235.825C119.075 236.385 118.751 236.735 118.283 236.877C117.834 237.058 117.389 237.077 116.947 236.935C116.505 236.793 116.155 236.517 115.897 236.109C115.628 235.73 115.584 235.261 115.765 234.701C116.504 232.403 117.481 230.279 118.694 228.329C119.907 226.378 121.248 224.485 122.717 222.65C122.634 222.2 122.713 221.754 122.953 221.311C123.329 220.749 123.835 220.49 124.472 220.532C125.516 219.308 126.57 218.103 127.635 216.917C128.738 215.712 129.812 214.497 130.857 213.273C131.901 212.048 132.906 210.795 133.872 209.513C134.837 208.23 135.724 206.89 136.531 205.492C136.762 205.079 137.062 204.753 137.432 204.514C137.831 204.285 138.28 204.251 138.781 204.412C139.253 204.564 139.623 204.878 139.892 205.355C140.171 205.802 140.2 206.267 139.98 206.748C139.341 208.429 138.863 210.014 138.546 211.505C138.238 212.967 138.004 214.452 137.843 215.961C137.692 217.44 137.565 218.944 137.464 220.472C137.401 221.98 137.309 223.478 137.187 224.967C137.084 226.397 136.952 227.818 136.79 229.229C136.629 230.64 136.643 232.059 136.834 233.486C136.93 234.199 137.045 234.903 137.179 235.596C137.323 236.26 137.491 236.949 137.685 237.661C137.867 238.305 138.011 238.969 138.116 239.653C138.231 240.308 138.238 240.993 138.137 241.709C138.044 242.199 137.829 242.617 137.49 242.963C137.18 243.319 136.751 243.489 136.203 243.476C135.753 243.461 135.33 243.259 134.934 242.872C134.539 242.485 134.373 242.041 134.436 241.541C134.536 240.826 134.495 240.146 134.312 239.502C134.159 238.867 133.996 238.213 133.822 237.539C133.618 236.759 133.444 235.987 133.299 235.225C133.193 234.443 133.122 233.656 133.084 232.864C133.027 232.032 133.013 231.215 133.044 230.412C133.085 229.58 133.14 228.753 133.209 227.93C131.912 227.414 130.62 226.933 129.334 226.487C128.086 226.02 126.837 225.504 125.589 224.94C124.275 226.598 123.054 228.318 121.927 230.101C120.83 231.894 119.939 233.802 119.256 235.825ZM128.446 221.519C128.358 221.588 128.281 221.677 128.213 221.786C128.185 221.874 128.127 221.953 128.04 222.022C128.954 222.414 129.863 222.772 130.767 223.095C131.68 223.389 132.598 223.718 133.522 224.08C133.653 222.562 133.75 221.048 133.813 219.54C133.915 218.013 134.051 216.479 134.221 214.941C133.273 216.067 132.316 217.173 131.348 218.259C130.39 219.316 129.423 220.403 128.446 221.519ZM160.05 232.572C160.61 232.752 160.961 233.076 161.103 233.544C161.283 233.993 161.303 234.438 161.16 234.88C161.018 235.322 160.738 235.687 160.32 235.975C159.941 236.243 159.472 236.287 158.912 236.107C158.048 235.861 157.179 235.581 156.305 235.267C155.431 234.953 154.571 234.644 153.726 234.34C153.49 235.174 153.244 235.989 152.988 236.784C152.761 237.589 152.515 238.404 152.25 239.229C152.06 239.818 151.726 240.199 151.248 240.37C150.81 240.521 150.369 240.526 149.927 240.383C149.485 240.241 149.13 239.981 148.862 239.602C148.604 239.193 148.569 238.694 148.759 238.105C149.024 237.28 149.27 236.465 149.497 235.661C149.733 234.826 149.969 233.992 150.205 233.157C149.263 232.854 148.325 232.585 147.393 232.35C146.49 232.124 145.544 231.933 144.554 231.777C144.063 231.684 143.64 231.483 143.285 231.173C142.939 230.834 142.773 230.391 142.787 229.842C142.802 229.392 143.003 228.969 143.39 228.574C143.778 228.178 144.221 228.012 144.721 228.075C145.868 228.25 146.981 228.478 148.061 228.76C149.17 229.052 150.289 229.364 151.418 229.695C151.675 228.997 151.946 228.305 152.233 227.616C152.529 226.899 152.825 226.181 153.121 225.464C153.332 225.011 153.641 224.656 154.05 224.397C154.488 224.148 154.957 224.104 155.458 224.265C155.9 224.408 156.255 224.717 156.524 225.194C156.823 225.68 156.867 226.15 156.656 226.602C156.36 227.32 156.064 228.037 155.768 228.755C155.482 229.443 155.19 230.145 154.894 230.863C155.739 231.167 156.584 231.472 157.429 231.776C158.313 232.061 159.187 232.326 160.05 232.572Z" fill="#E93C24"/>
<path d="M70 42.9572C73.9881 43.2351 76.6833 43.9681 79.7271 41.224C81.2246 39.874 83.554 36.8806 85.8066 38.4367C88.0254 39.9695 89.3867 42.3035 91.7925 43.7067C94.5631 45.3227 97.2045 46.4222 100.491 46.2363C103.364 46.0739 105.85 44.8728 107.88 47.4777C110.274 50.5509 112.027 54.7986 115.619 56.7295C117.232 57.5964 119.265 57.2181 121.021 57.5259C124.217 58.0862 127.393 58.0236 130.608 58.3456C137.141 59.0001 143.771 60.4362 150.296 61.5076C154.182 62.1458 157.514 62.8949 161.519 62.5148C166.57 62.0355 169.546 61.0833 174.123 63.803C179.44 66.9627 184.709 64.4374 190.373 65.7236C193.344 66.3981 195.773 65.7263 198.604 64.8804C200.134 64.4233 201.499 65.0514 203 65.302" stroke="black" stroke-opacity="0.32" stroke-width="2" stroke-linecap="round" stroke-linejoin="round"/>
<path d="M70 61.5815C73.7718 60.2592 76.2294 58.8175 79.25 61.5577C80.7554 62.9234 83.0922 62.8722 84.9261 63.5364C87.3268 64.4058 88.4787 66.521 90.4154 68.0659C92.4856 69.7173 94.5938 69.4673 97.0025 69.83C98.6985 70.0853 99.9634 71.1154 101.557 71.6418C103.247 72.1997 105.532 71.9186 107 73.0006C109.555 74.884 111.411 75.8764 114.638 76.1951C119.745 76.6994 124.338 79.0586 129.518 79.4849C138.005 80.1834 146.11 82.6329 154.698 81.845C158.039 81.5385 161.722 80.8915 165.046 80.8915C170.415 80.8915 175.659 81.5728 181 80.8915" stroke="black" stroke-opacity="0.32" stroke-width="2" stroke-linecap="round" stroke-linejoin="round"/>
<path d="M61 82.7696C64.4381 80.4533 68.4875 76.5573 71.5556 81.1018C72.9023 83.0966 73.77 86.9005 76.9037 86.2441C79.872 85.6223 82.9397 83.302 86.1222 84.113C89.4848 84.9699 91.1508 89.9928 94.684 91.4327C97.1151 92.4235 98.9932 90.0429 101.44 90.0429C103.479 90.0429 105.275 91.7286 107.398 91.9191C109.62 92.1187 111.662 91.0042 112.91 89.2322C114.691 86.704 116.909 88.7818 119.361 89.8576C123.904 91.8517 128.529 93.0428 133.388 94.027C135.844 94.5245 138.082 94.7687 140.542 94.2355C141.954 93.9294 143.532 93.1332 144.999 93.4711C147.445 94.0348 148.007 97.2206 149.901 98.5671C151.477 99.6873 153.809 99.8482 155.578 100.698C158.905 102.297 162.537 104.451 166.321 104.451C167.632 104.451 168.789 105.808 169.957 106.327C171.736 107.118 173.211 107.242 175 106.535" stroke="black" stroke-opacity="0.32" stroke-width="2" stroke-linecap="round" stroke-linejoin="round"/>
<path d="M59 99.2001C62.5199 97.268 66.1245 95.471 69.2558 99.0622C70.6346 100.644 71.1081 102.846 73.2326 103.658C77.5915 105.323 82.5308 104.4 86.7674 102.923C91.4451 101.291 93.2868 101.219 95.8372 105.818C97.6888 109.157 99.1333 108.404 102.163 109.357C104.417 110.065 106.373 109.056 108.628 109.747C111.607 110.661 114.161 110.446 116.767 112.344C118.913 113.906 120.471 112.548 122.628 113.309C125.693 114.39 127.733 113.946 131 113.676" stroke="black" stroke-opacity="0.32" stroke-width="2" stroke-linecap="round" stroke-linejoin="round"/>
</svg>
