<svg width="179" height="108" viewBox="0 0 179 108" fill="none" xmlns="http://www.w3.org/2000/svg">
<path d="M70.5 0C85.1355 0 97 11.8645 97 26.5C97 41.1355 85.1355 53 70.5 53H32.5C26.6615 53 21.264 51.1119 16.8848 47.9129L17 48.1891C13.323 50.0077 4.77515 53.5038 0 52.939C5.01694 50.6281 6.1424 45.5573 6.07802 43.3108L6 28.5V26.5C6 26.5 6.02632 25.1274 6.07802 24.4513L6.29636 22.5235C8.21485 9.77441 19.216 0 32.5 0H70.5Z" fill="#00A3FF"/>
<path d="M132.5 55C117.864 55 106 66.8645 106 81.5C106 96.1355 117.864 108 132.5 108H146.5C152.338 108 157.736 106.112 162.115 102.913L162 103.189C165.677 105.008 174.225 108.504 179 107.939C173.983 105.628 172.858 100.557 172.922 98.3108V83.5487C172.922 83.5487 172.922 80.1407 172.922 79.4513L172.704 77.5235C170.785 64.7744 159.784 55 146.5 55H132.5Z" fill="#00A3FF"/>
<path d="M27.3882 34C27.3882 30.5155 29.21 27.8334 32.8535 25.9538C33.6488 25.549 34.2705 25.1224 34.7187 24.6742C35.1669 24.2115 35.391 23.6476 35.391 22.9826C35.391 22.3464 35.138 21.8114 34.6319 21.3777C34.1403 20.9439 33.5114 20.727 32.7451 20.727C31.2269 20.727 30.2076 21.3993 29.6871 22.744L27.6268 21.8114C28.0027 20.8282 28.6461 20.0402 29.557 19.4474C30.4823 18.8546 31.5523 18.5582 32.7668 18.5582C34.2849 18.5582 35.4922 18.9775 36.3887 19.8161C37.2851 20.6403 37.7333 21.7174 37.7333 23.0476C37.7333 23.8718 37.5453 24.5947 37.1694 25.2164C36.808 25.8381 36.3814 26.3297 35.8898 26.6912C35.3982 27.0526 34.7042 27.4719 33.8078 27.9491C31.6968 29.0768 30.4751 30.3564 30.1425 31.7878H37.8634V34H27.3882Z" fill="white"/>
<path d="M46.9562 27.6454V31.6577H44.7007V27.6454H40.7318V25.4767H44.7007V21.4644H46.9562V25.4767H50.9251V27.6454H46.9562Z" fill="white"/>
<path d="M53.7203 34C53.7203 30.5155 55.5421 27.8334 59.1857 25.9538C59.9809 25.549 60.6026 25.1224 61.0508 24.6742C61.499 24.2115 61.7231 23.6476 61.7231 22.9826C61.7231 22.3464 61.4701 21.8114 60.9641 21.3777C60.4725 20.9439 59.8435 20.727 59.0772 20.727C57.5591 20.727 56.5397 21.3993 56.0192 22.744L53.9589 21.8114C54.3348 20.8282 54.9782 20.0402 55.8891 19.4474C56.8144 18.8546 57.8844 18.5582 59.0989 18.5582C60.6171 18.5582 61.8243 18.9775 62.7208 19.8161C63.6172 20.6403 64.0654 21.7174 64.0654 23.0476C64.0654 23.8718 63.8775 24.5947 63.5015 25.2164C63.1401 25.8381 62.7135 26.3297 62.222 26.6912C61.7304 27.0526 61.0364 27.4719 60.1399 27.9491C58.029 29.0768 56.8072 30.3564 56.4747 31.7878H64.1956V34H53.7203Z" fill="white"/>
<path d="M74.3128 29.8793V29.4455C74.3128 28.6792 74.4429 28.0141 74.7032 27.4503C74.9634 26.8864 75.2743 26.4382 75.6357 26.1056C76.0117 25.7731 76.3804 25.4622 76.7418 25.173C77.1033 24.8839 77.4141 24.5513 77.6744 24.1754C77.9347 23.785 78.0648 23.344 78.0648 22.8524C78.0648 22.2018 77.8551 21.6813 77.4358 21.2909C77.0165 20.8861 76.431 20.6836 75.6791 20.6836C74.7971 20.6836 74.1104 20.9439 73.6188 21.4644C73.1416 21.9705 72.9031 22.6934 72.9031 23.6332H70.6475C70.6475 22.0717 71.1102 20.8355 72.0356 19.9246C72.9609 19.0137 74.1754 18.5582 75.6791 18.5582C77.1394 18.5582 78.2744 18.9631 79.0841 19.7727C79.9082 20.568 80.3203 21.5945 80.3203 22.8524C80.3203 23.5031 80.1902 24.0814 79.9299 24.5875C79.6697 25.0935 79.3588 25.5056 78.9974 25.8237C78.6359 26.1418 78.2672 26.4598 77.8913 26.7779C77.5298 27.096 77.219 27.4792 76.9587 27.9274C76.6984 28.3756 76.5683 28.8889 76.5683 29.4672V29.8793H74.3128ZM75.4189 34.2602C74.9562 34.2602 74.5658 34.1084 74.2477 33.8048C73.9441 33.4867 73.7923 33.1108 73.7923 32.677C73.7923 32.2433 73.9441 31.8674 74.2477 31.5493C74.5658 31.2312 74.9562 31.0721 75.4189 31.0721C75.8671 31.0721 76.2502 31.2312 76.5683 31.5493C76.9009 31.8674 77.0671 32.2433 77.0671 32.677C77.0671 33.1108 76.9009 33.4867 76.5683 33.8048C76.2502 34.1084 75.8671 34.2602 75.4189 34.2602Z" fill="white"/>
<path d="M139.48 89V85.5516H131.304V84.0985L139.068 73.8185H141.736V83.4696H143.709V85.5516H141.736V89H139.48ZM139.48 83.4696V76.5512L134.297 83.4696H139.48Z" fill="white"/>
</svg>
